<svg width="1360" height="116" viewBox="0 0 1360 116" fill="none" xmlns="http://www.w3.org/2000/svg">
<path fill-rule="evenodd" clip-rule="evenodd" d="M179.862 47.9436C166.535 74.3242 153.106 99.7959 150.017 104.545C146.929 109.296 144.403 113.494 144.403 113.877C144.403 114.259 150.254 114.571 157.405 114.571H170.406V109.87C170.406 104.86 174.021 94.2004 179.157 84.0661L182.294 77.8749L203.206 78.1976L224.12 78.5203L229.292 90.3283C232.234 97.0467 234.739 104.817 235.105 108.354L235.746 114.571H248.681C255.795 114.571 261.439 114.171 261.222 113.684C261.005 113.197 258.82 109.832 256.366 106.209C252.646 100.716 233.378 60.8508 210.302 10.905C207.537 4.9206 205.009 0.0130077 204.684 5.87348e-06C204.359 -0.0129959 193.189 21.5617 179.862 47.9436ZM417.441 47.966C404.114 74.3609 390.684 99.8326 387.596 104.57C384.507 109.306 381.981 113.494 381.981 113.877C381.981 114.259 387.758 114.571 394.818 114.571H407.654L408.322 108.105C408.724 104.213 411.046 97.0407 414.159 90.0801L419.331 78.5203H440.489H461.648L466.819 90.0801C469.932 97.0407 472.255 104.213 472.657 108.105L473.325 114.571H486.161C493.221 114.571 498.997 114.279 498.997 113.922C498.997 113.565 496.867 110.241 494.265 106.534C490.319 100.915 472.367 63.9039 447.88 10.905C445.116 4.9206 442.587 0.0130077 442.262 5.87348e-06C441.937 -0.0129959 430.768 21.5724 417.441 47.966ZM742.648 2.71856C736.926 4.7894 729.84 11.1355 726.971 16.7582C721.795 26.9031 724.751 42.4462 733.018 48.5582L736.533 51.1574L730.848 54.4043C716.113 62.82 710.708 78.7413 717.243 94.477C719.824 100.688 726.553 106.9 734.654 110.548C740.667 113.256 744.002 113.897 754.32 114.33C774.568 115.179 787.374 110.534 800.336 97.64L806.128 91.8779L815.715 99.6813C825.28 107.466 837.523 114.571 841.374 114.571C842.493 114.571 847.078 112.39 851.565 109.725L859.722 104.878L850.112 101.005C840.028 96.9379 827.077 88.9383 819.504 82.0969L815.018 78.0439L818.849 66.4629C822.921 54.1478 825.216 39.1697 825.221 24.8654L825.224 16.1246L833.794 16.8823C838.506 17.2983 843.825 17.9685 845.614 18.3727L848.864 19.1056V10.6946V2.28241H819.315H789.765V10.0693V17.8562L794.197 17.1931C796.636 16.8279 801.157 16.1884 804.244 15.7724L809.859 15.0159V27.344C809.859 34.1238 809.3 42.8279 808.616 46.6848C807.509 52.9351 804.206 64.8424 803.279 65.931C803.085 66.1579 799.403 63.8282 795.095 60.7539C790.786 57.6796 783.387 53.48 778.651 51.421L770.04 47.6776L774.497 42.6554C783.107 32.9525 782.679 16.1636 773.612 7.95947C766.803 1.79662 752.081 -0.695001 742.648 2.71856ZM948.151 3.49867C932.706 10.6402 925.217 26.1856 929.735 41.7275C932.248 50.3737 937.161 55.3262 952.684 64.866C967.837 74.1777 971.79 78.4907 971.79 85.7114C971.79 92.8483 969.171 97.5017 963.539 100.375C954.25 105.114 943.3 102.487 934.613 93.4357C932.044 90.7585 929.517 88.5671 928.999 88.5671C928.481 88.5671 928.057 93.6047 928.057 99.7629V110.959L934.262 112.685C944.212 115.455 951.977 116.02 960.017 114.562C978.94 111.131 988.729 100.474 988.782 83.2482C988.797 78.6373 988.119 73.6659 987.252 72.0194C984.225 66.2749 976.98 59.9147 966.205 53.5426C948.588 43.1246 944.6 38.7442 944.609 29.8226C944.624 15.2901 962.535 9.1781 977.621 18.5559L983.61 22.278V13.9935V5.7078L979.178 3.75162C976.445 2.54481 970.666 1.65005 964.107 1.4172C955.291 1.10398 952.559 1.45975 948.151 3.49867ZM1059.36 2.97742C1038.8 8.50437 1021.19 28.377 1017.9 49.7674C1011.91 88.7231 1047.16 122.003 1086.25 114.301C1099.51 111.689 1107.13 107.87 1116.4 99.2014C1130.29 86.2091 1136.38 68.4131 1133.63 48.8998C1130.59 27.331 1114.58 9.4925 1092.43 2.98569C1084.46 0.643003 1068.05 0.638275 1059.36 2.97742ZM1321.47 2.19967C1316.2 3.87927 1308.08 10.1119 1304.92 14.8942C1300.43 21.6988 1298.82 27.7612 1299.51 35.3401C1300.69 48.3844 1304.99 53.4457 1326.1 66.6425C1340.07 75.3797 1343.37 79.59 1342.62 87.7196C1341.77 96.8221 1334.67 102.751 1324.62 102.751C1318.06 102.751 1311.49 99.5962 1304.36 93.0185L1299.11 88.183L1299.45 99.8503L1299.79 111.516L1305.11 113.181C1313.08 115.674 1331.58 115.62 1338.83 113.084C1346.42 110.435 1352.7 105.243 1356.81 98.2405C1359.57 93.5255 1360.03 91.4311 1360 83.8486C1359.93 70.1412 1355.61 64.4464 1336.71 53.1927C1319.78 43.1045 1315.75 38.6437 1315.75 30.0046C1315.75 15.6613 1334.09 9.43577 1349.02 18.7143L1354.75 22.278V13.9935V5.7078L1350.32 3.75162C1345.36 1.5614 1326.63 0.553174 1321.47 2.19967ZM4.8284 7.76799L9.6568 13.2536L9.61543 55.3428C9.58351 87.3379 9.16864 99.2747 7.88382 105.115C6.95478 109.34 6.17468 113.197 6.15222 113.684C6.12976 114.171 11.4995 114.571 18.0855 114.571H30.0602L29.2647 110.138C26.5367 94.9215 26.1691 88.6014 26.4658 61.9725L26.7955 32.423L45.6269 55.7671C55.9846 68.6058 64.7608 79.0782 65.1296 79.0368C65.4984 78.9966 74.0453 68.6531 84.1217 56.052C94.1981 43.4509 102.895 33.1121 103.448 33.0778C104.001 33.0423 104.212 48.3064 103.915 66.9959C103.514 92.236 102.921 102.569 101.609 107.164C100.639 110.567 100.117 113.625 100.453 113.961C101.425 114.932 124.314 114.666 124.267 113.684C124.244 113.197 123.454 109.606 122.512 105.706C121.191 100.236 120.796 89.3992 120.782 58.3072C120.763 16.8811 121.093 13.4084 125.672 6.82832C126.873 5.10262 127.855 3.37338 127.855 2.98688C127.855 2.59919 123.202 2.28596 117.513 2.29187L107.17 2.30014L104.602 6.7243C101.58 11.9309 66.9782 54.6856 65.3471 55.2293C63.918 55.7056 29.1973 12.8765 26.1147 6.83423L23.7921 2.28241H11.8967H0L4.8284 7.76799ZM281.536 2.57791C281.548 2.73984 282.328 7.12854 283.268 12.3293C284.508 19.1907 284.985 31.6759 285.01 57.8356C285.042 90.4937 284.586 98.5702 282.026 110.729L281.217 114.571H293.323H305.428L304.735 111.32C302.28 99.8054 301.57 90.4098 301.864 73.3018L302.197 53.8984L316.972 72.0371C335.351 94.5988 338.751 99.2522 343.093 107.774L346.556 114.571H360.722C368.514 114.571 374.889 114.334 374.889 114.047C374.889 113.759 371.887 110.7 368.218 107.251C361.661 101.084 321.7 53.4008 321.7 51.7413C321.7 49.6669 350.707 17.2144 358.531 10.535C363.302 6.4619 367.427 2.93841 367.699 2.70556C367.97 2.47271 361.299 2.28241 352.874 2.28241H337.556L336.202 7.30584C335.207 10.9995 330.526 17.4933 318.523 31.832L302.197 51.3347L301.848 37.1509C301.541 24.7696 302.498 14.1932 304.759 4.94187C305.401 2.31669 305.255 2.28241 293.46 2.28241C286.89 2.28241 281.523 2.41598 281.536 2.57791ZM520.025 8.38853C521.434 13.2666 521.959 23.0723 522.344 51.7318C522.805 86.0365 522.41 94.2205 519.5 110.729L518.823 114.571H530.691C545.721 114.571 559.495 112.672 565.729 109.742C577.883 104.03 584.1 95.1236 584.1 83.4279C584.1 72.3302 579.992 65.2655 569.171 57.7576L564.287 54.3688L570.526 48.1244C574.907 43.7393 577.183 40.3198 578.171 36.6438C581.378 24.7058 575.475 12.5527 563.505 6.44535C556.699 2.97387 555.962 2.86277 537.353 2.47862L518.203 2.08384L520.025 8.38853ZM614.141 4.35088C616.54 11.9735 617.193 23.7283 617.177 58.8828C617.163 89.4713 616.764 100.246 615.446 105.706C614.504 109.606 613.715 113.197 613.692 113.684C613.645 114.666 636.534 114.932 637.506 113.961C637.841 113.625 637.287 110.567 636.275 107.164C633.467 97.7275 633.48 18.8443 636.291 9.07881L638.247 2.28241H625.869C614.62 2.28241 613.549 2.47153 614.141 4.35088ZM1163.73 9.44168L1170.36 16.6009V55.435C1170.36 85.046 1169.94 96.4699 1168.59 103.533C1167.62 108.629 1166.82 113.197 1166.82 113.684C1166.82 114.171 1172.14 114.571 1178.64 114.571C1185.73 114.571 1190.46 114.098 1190.46 113.389C1190.46 112.74 1189.65 107.527 1188.66 101.806C1187.32 94.0267 1186.95 84.2801 1187.18 63.1297L1187.5 34.8543L1215.15 69.5443C1230.36 88.6238 1244.11 106.581 1245.71 109.448L1248.63 114.662L1258.25 114.321C1264.91 114.085 1267.79 113.546 1267.61 112.573C1265.86 103.525 1264.75 72.1151 1265.31 47.1977C1265.9 20.7048 1266.61 12.8245 1269.18 4.35088C1269.75 2.47153 1268.66 2.28241 1257.24 2.28241C1245.81 2.28241 1244.73 2.46917 1245.32 4.35088C1247.72 11.9274 1248.54 22.2083 1249.17 52.2212C1249.59 71.8456 1249.44 86.1771 1248.84 86.1429C1247.22 86.0495 1190.24 13.542 1187.08 7.55524L1184.3 2.28241H1170.7H1157.11L1163.73 9.44168ZM550.551 13.9994C559.673 18.1422 564.605 28.1749 561.758 36.801C559.897 42.4403 552.561 49.1976 545.306 51.954L539.185 54.2802V33.0092V11.7383L542.435 11.7643C544.222 11.7785 547.875 12.7843 550.551 13.9994ZM1089.86 16.3645C1106.37 24.9056 1116.52 42.406 1116.31 61.9725C1115.98 93.1331 1088.92 112.176 1062.3 99.9874C1044.76 91.9594 1034.78 73.8644 1035.84 52.0415C1036.67 34.9276 1044.06 22.6917 1057.47 16.2109C1063.95 13.0798 1065.46 12.8186 1074.62 13.2287C1082.12 13.5644 1085.99 14.3611 1089.86 16.3645ZM762.837 19.914C768.825 26.6171 766.157 37.1698 757.265 41.9592L753.078 44.2144L747.707 41.3647C732.883 33.5009 737.862 14.0183 754.268 15.6944C758.295 16.1057 760.328 17.1068 762.837 19.914ZM211.02 48.8738C214.686 57.2718 217.686 64.5859 217.686 65.126C217.686 65.6674 211.037 66.1095 202.911 66.1095C194.785 66.1095 188.136 65.9215 188.136 65.691C188.136 64.6237 203.648 32.7752 203.979 33.1629C204.186 33.4064 207.355 40.4758 211.02 48.8738ZM448.599 48.8738C452.264 57.2718 455.264 64.5859 455.264 65.126C455.264 65.6674 448.615 66.1095 440.489 66.1095C432.363 66.1095 425.715 65.9239 425.715 65.6969C425.715 64.6887 441.273 32.8201 441.585 33.1901C441.777 33.4182 444.934 40.4758 448.599 48.8738ZM552.911 60.8484C562.956 66.6473 568.343 76.005 567.245 85.7445C566.149 95.4675 557.631 102.562 544.799 104.439L539.185 105.26V80.4611V55.6619L543.617 56.8522C546.056 57.507 550.238 59.3048 552.911 60.8484ZM760.856 60.7669C772.025 64.97 783.636 71.3173 789.642 76.5014C794.226 80.4587 794.681 81.2802 793.504 83.4799C791.439 87.3379 783.201 93.3411 775.792 96.3883C768.366 99.4425 754.912 100.181 746.955 97.971C734.279 94.451 727.772 79.5982 734.52 69.5845C738.093 64.2821 746.716 57.8356 750.234 57.8356C751.794 57.8356 756.574 59.1547 760.856 60.7669Z" fill="#EBE8E3"/>
</svg>
